<?xml version="1.0" ?><!DOCTYPE svg  PUBLIC '-//W3C//DTD SVG 1.1//EN'  'http://www.w3.org/Graphics/SVG/1.1/DTD/svg11.dtd'><svg height="512px" style="enable-background:new 0 0 512 512;" version="1.1" viewBox="0 0 512 512" width="512px" xml:space="preserve" xmlns="http://www.w3.org/2000/svg" xmlns:xlink="http://www.w3.org/1999/xlink"><g id="形状_2_3_" style="enable-background:new    ;"><g id="形状_2"><g><path d="M328.216,34.791c-31.217,0-59.061,41.589-77.274,106.626     C232.733,76.38,204.876,34.791,173.664,34.791c-54.866,0-99.359,138.384-99.359,309.093h44.166     c0-158.514,24.717-287.017,55.194-287.017c30.484,0,55.202,118.621,55.202,264.94h44.148c0-146.319,24.718-264.94,55.202-264.94     c30.48,0,55.198,128.503,55.198,287.017h44.153C427.567,173.175,383.082,34.791,328.216,34.791z" style="fill-rule:evenodd;clip-rule:evenodd;fill:#FCCA0F;"/></g></g></g><g id="形状_2_2_" style="enable-background:new    ;"><g id="形状_2_1_"><g><path d="M36.008,416.979H51.09v-12.101H36.008V416.979z      M36.008,476.718H51.09v-53.123H36.008V476.718z M57.535,420.242h6.615c0,5.482-2.943,9.941-6.627,9.941l0.013,7.254     c8.757,0,15.798-7.68,15.798-17.195V404.96H57.535V420.242z M139.396,422.385c-8.268,0-12.434,3.608-15.415,6.177     c-2.781-2.981-5.856-6.177-14.375-6.177c-8.945,0-12.927,4.711-14.738,6.909v-5.699H79.803v53.123h15.065v-30.203     c0-3.62,0.124-7.918,3.489-10.206c1.397-0.945,2.981-1.265,4.195-1.265c2.475,0,4.75,1.158,5.963,2.756     c1.372,2.006,1.478,5.201,1.478,7.505v31.413h15.078v-28.896c0-5.763,0-8.838,2.875-11.13c1.503-1.21,3.488-1.648,4.992-1.648     c1.171,0,5.244,0.319,6.658,4.762c0.558,2.041,0.558,6.006,0.558,9.068v27.844h15.108v-34.552c0-5.661-0.081-9.371-1.384-12.156     C152.294,426.695,147.915,422.385,139.396,422.385z M176.798,476.718h15.295V404.96h-15.295V476.718z M228.431,422.065     c-19.844-1.171-29.879,11.752-29.879,28.044c0,19.623,13.311,28.1,27.925,28.1c20.245,0,27.78-14.695,27.78-28.1     C254.256,440.406,249.57,423.301,228.431,422.065z M226.476,465.818c-8.532,0-12.527-7.416-12.527-15.828     c0-3.688,0.682-7.292,2.568-10.397c2.104-3.284,4.703-4.868,9.051-5.175c2.185-0.226,5.793-0.106,8.932,2.981     c2.905,2.807,4.289,7.386,4.289,13.311C238.79,459.016,234.713,465.818,226.476,465.818z M279.455,462.278l-9.104-38.684h-16.096     l16.803,53.123h15.973l16.77-53.123h-15.679L279.455,462.278z M371.011,424.502c-2.662-1.491-6.087-2.117-9.175-2.117     c-3.74,0-7.079,0.916-9.435,1.917c-2.662,1.278-3.663,2.487-5.205,4.153v-4.86h-15.415v53.123h15.334v-28.683     c0-6.603,0-13.204,8.029-13.204c2.951,0,5.682,1.265,6.921,4.072c0.597,1.396,0.703,3.156,0.703,7.905v29.909h15.177v-36.312     C377.945,432.182,376.53,427.402,371.011,424.502z M310.297,416.979h15.096v-12.101h-15.096V416.979z M310.297,476.718h15.096     v-53.123h-15.096V476.718z M421.685,416.979h15.053v-12.101h-15.053V416.979z M421.685,476.718h15.053v-53.123h-15.053V476.718z      M465.821,435.802h10.171v-12.113h-10.078V411.48h-15.172v12.114h-7.467v12.088h7.467v24.224c0,5.111,0.106,8.881,2.194,12.007     c3.356,4.911,9.063,5.205,14.324,5.205c2.807,0,4.805-0.294,8.037-0.783v-12.221l-5.431,0.2c-4.123,0-4.123-2.781-4.046-6.019     V435.802z M384.309,420.242h6.666c0,5.482-2.981,9.941-6.666,9.941v7.254c8.77,0,15.798-7.68,15.798-17.195V404.96h-15.798     V420.242z" style="fill-rule:evenodd;clip-rule:evenodd;fill:#1B1B1B;"/></g></g></g></svg>